<svg width="251" height="251" viewBox="0 0 251 251" fill="none" xmlns="http://www.w3.org/2000/svg">
  <path d="M221.717 230.084C224.645 230.084 226.109 230.084 227.228 229.514C228.212 229.012 229.012 228.212 229.513 227.228C230.083 226.11 230.083 224.646 230.083 221.717V112.95C230.083 110.022 230.083 108.557 229.513 107.439C229.012 106.455 228.212 105.655 227.228 105.154C226.109 104.584 224.645 104.584 221.717 104.584L196.617 104.584C193.688 104.584 192.224 104.584 191.105 105.154C190.121 105.655 189.321 106.455 188.82 107.439C188.25 108.557 188.25 110.022 188.25 112.95V138.05C188.25 140.979 188.25 142.443 187.68 143.562C187.179 144.546 186.379 145.346 185.395 145.847C184.276 146.417 182.812 146.417 179.883 146.417H154.783C151.855 146.417 150.39 146.417 149.272 146.987C148.288 147.488 147.488 148.288 146.986 149.272C146.417 150.391 146.417 151.855 146.417 154.784V179.884C146.417 182.812 146.417 184.277 145.847 185.395C145.345 186.379 144.545 187.179 143.561 187.68C142.443 188.25 140.978 188.25 138.05 188.25H112.95C110.021 188.25 108.557 188.25 107.438 188.82C106.454 189.322 105.654 190.122 105.153 191.106C104.583 192.224 104.583 193.688 104.583 196.617V221.717C104.583 224.646 104.583 226.11 105.153 227.228C105.654 228.212 106.454 229.012 107.438 229.514C108.557 230.084 110.021 230.084 112.95 230.084L221.717 230.084Z" stroke="#6E6F81" stroke-linecap="round" stroke-linejoin="round" stroke-dasharray="6 6"/>
  <path d="M104.583 71.117C104.583 68.1884 104.583 66.7241 105.153 65.6055C105.654 64.6216 106.454 63.8216 107.438 63.3203C108.557 62.7503 110.021 62.7503 112.95 62.7503H138.05C140.978 62.7503 142.443 62.7503 143.561 63.3203C144.545 63.8216 145.345 64.6216 145.847 65.6055C146.417 66.7241 146.417 68.1884 146.417 71.117V96.217C146.417 99.1456 146.417 100.61 145.847 101.728C145.345 102.712 144.545 103.512 143.561 104.014C142.443 104.584 140.978 104.584 138.05 104.584H112.95C110.021 104.584 108.557 104.584 107.438 104.014C106.454 103.512 105.654 102.712 105.153 101.728C104.583 100.61 104.583 99.1456 104.583 96.217V71.117Z" stroke="#6E6F81" stroke-linecap="round" stroke-linejoin="round" stroke-dasharray="6 6"/>
  <path d="M31.3748 133.867C31.3748 130.938 31.3748 129.474 31.9448 128.356C32.4461 127.372 33.2461 126.572 34.23 126.07C35.3486 125.5 36.8129 125.5 39.7415 125.5H64.8415C67.7701 125.5 69.2344 125.5 70.353 126.07C71.3369 126.572 72.1369 127.372 72.6382 128.356C73.2082 129.474 73.2082 130.938 73.2082 133.867V158.967C73.2082 161.896 73.2082 163.36 72.6382 164.478C72.1369 165.462 71.3369 166.262 70.353 166.764C69.2344 167.334 67.7701 167.334 64.8415 167.334H39.7415C36.8129 167.334 35.3486 167.334 34.23 166.764C33.2461 166.262 32.4461 165.462 31.9448 164.478C31.3748 163.36 31.3748 161.896 31.3748 158.967V133.867Z" stroke="#6E6F81" stroke-linecap="round" stroke-linejoin="round" stroke-dasharray="6 6"/>
  <path d="M20.9165 29.2837C20.9165 26.3551 20.9165 24.8907 21.4864 23.7722C21.9878 22.7882 22.7877 21.9883 23.7717 21.4869C24.8903 20.917 26.3546 20.917 29.2832 20.917H54.3832C57.3118 20.917 58.7761 20.917 59.8947 21.4869C60.8786 21.9883 61.6786 22.7882 62.1799 23.7722C62.7498 24.8907 62.7498 26.3551 62.7498 29.2837V54.3837C62.7498 57.3123 62.7498 58.7766 62.1799 59.8952C61.6786 60.8791 60.8786 61.679 59.8947 62.1804C58.7761 62.7503 57.3118 62.7503 54.3832 62.7503H29.2832C26.3546 62.7503 24.8903 62.7503 23.7717 62.1804C22.7877 61.679 21.9878 60.8791 21.4864 59.8952C20.9165 58.7766 20.9165 57.3123 20.9165 54.3837V29.2837Z" stroke="#6E6F81" stroke-linecap="round" stroke-linejoin="round" stroke-dasharray="6 6"/>
</svg>
