<svg width="251" height="251" viewBox="0 0 251 251" fill="none" xmlns="http://www.w3.org/2000/svg">
  <path
    d="M104.583 88.9192C106.426 83.6809 110.063 79.2638 114.851 76.4502C119.638 73.6366 125.267 72.6081 130.74 73.5468C136.213 74.4856 141.177 77.3311 144.753 81.5792C148.329 85.8274 150.287 91.2041 150.278 96.7571C150.278 112.433 126.765 120.271 126.765 120.271M127.068 151.646H127.172M103.537 200.8L118.807 221.159C121.077 224.186 122.213 225.7 123.605 226.242C124.824 226.716 126.176 226.716 127.395 226.242C128.787 225.7 129.923 224.186 132.193 221.159L147.463 200.8C150.528 196.712 152.061 194.668 153.931 193.108C156.424 191.027 159.367 189.556 162.528 188.81C164.898 188.25 167.453 188.25 172.562 188.25C187.181 188.25 194.491 188.25 200.257 185.862C207.944 182.677 214.052 176.569 217.237 168.882C219.625 163.116 219.625 155.806 219.625 141.187V81.575C219.625 64.0034 219.625 55.2175 216.205 48.506C213.197 42.6025 208.398 37.8027 202.494 34.7947C195.782 31.375 186.997 31.375 169.425 31.375H81.575C64.0034 31.375 55.2175 31.375 48.506 34.7947C42.6025 37.8027 37.8027 42.6025 34.7947 48.506C31.375 55.2175 31.375 64.0033 31.375 81.575V141.187C31.375 155.806 31.375 163.116 33.7633 168.882C36.9477 176.569 43.0556 182.677 50.7433 185.862C56.5091 188.25 63.8186 188.25 78.4375 188.25C83.5472 188.25 86.1021 188.25 88.4723 188.81C91.6327 189.556 94.5759 191.027 97.069 193.108C98.9388 194.668 100.472 196.712 103.537 200.8Z"
    stroke="#6E6F81" stroke-linecap="round" stroke-linejoin="round" stroke-dasharray="6 6" />
</svg>