<svg width="251" height="251" viewBox="0 0 251 251" fill="none" xmlns="http://www.w3.org/2000/svg">
  <path
    d="M115.042 41.8333H81.575C64.0034 41.8333 55.2175 41.8333 48.506 45.253C42.6025 48.261 37.8027 53.0608 34.7947 58.9644C31.375 65.6759 31.375 74.4617 31.375 92.0333V169.425C31.375 186.997 31.375 195.782 34.7947 202.494C37.8027 208.398 42.6025 213.197 48.506 216.205C55.2175 219.625 64.0033 219.625 81.575 219.625H158.967C176.538 219.625 185.324 219.625 192.036 216.205C197.939 213.197 202.739 208.398 205.747 202.494C209.167 195.782 209.167 186.997 209.167 169.425V135.958M135.958 177.792H73.2083M156.875 135.958H73.2083M210.435 40.5645C222.688 52.8172 222.688 72.6828 210.435 84.9355C198.183 97.1882 178.317 97.1882 166.065 84.9355C153.812 72.6828 153.812 52.8172 166.065 40.5645C178.317 28.3118 198.183 28.3118 210.435 40.5645Z"
    stroke="#6E6F81" stroke-linecap="round" stroke-linejoin="round" stroke-dasharray="6 6" />
</svg>