<svg width="251" height="251" viewBox="0 0 251 251" fill="none" xmlns="http://www.w3.org/2000/svg">
  <path
    d="M94.1248 20.917V41.8337M156.875 20.917V41.8337M94.1248 209.167V230.084M156.875 209.167V230.084M209.167 94.1253H230.083M209.167 146.417H230.083M20.9165 94.1253H41.8332M20.9165 146.417H41.8332M92.0332 209.167H158.967C176.538 209.167 185.324 209.167 192.035 205.747C197.939 202.739 202.739 197.94 205.747 192.036C209.167 185.324 209.167 176.539 209.167 158.967V92.0337C209.167 74.462 209.167 65.6762 205.747 58.9647C202.739 53.0611 197.939 48.2614 192.035 45.2533C185.324 41.8337 176.538 41.8337 158.967 41.8337H92.0332C74.4615 41.8337 65.6757 41.8337 58.9642 45.2533C53.0606 48.2614 48.2609 53.0611 45.2528 58.9647C41.8332 65.6762 41.8332 74.462 41.8332 92.0337V158.967C41.8332 176.539 41.8332 185.324 45.2528 192.036C48.2609 197.94 53.0606 202.739 58.9642 205.747C65.6757 209.167 74.4615 209.167 92.0332 209.167ZM110.858 156.875H140.142C145.999 156.875 148.927 156.875 151.165 155.735C153.132 154.733 154.732 153.133 155.735 151.165C156.875 148.928 156.875 145.999 156.875 140.142V110.859C156.875 105.001 156.875 102.073 155.735 99.8357C154.732 97.8678 153.132 96.2679 151.165 95.2652C148.927 94.1253 145.999 94.1253 140.142 94.1253H110.858C105.001 94.1253 102.072 94.1253 99.8352 95.2652C97.8673 96.2679 96.2674 97.8678 95.2647 99.8357C94.1248 102.073 94.1248 105.001 94.1248 110.859V140.142C94.1248 145.999 94.1248 148.928 95.2647 151.165C96.2674 153.133 97.8673 154.733 99.8352 155.735C102.072 156.875 105.001 156.875 110.858 156.875Z"
    stroke="#6E6F81" stroke-linecap="round" stroke-linejoin="round" stroke-dasharray="6 6" />
</svg>