<svg width="166" height="166" viewBox="0 0 166 166" fill="none" xmlns="http://www.w3.org/2000/svg">
  <path d="M38.318 76.9133C5.94803 79.1958 5.94803 126.298 38.318 128.581H51.5983" stroke="#6E6F81"
    stroke-miterlimit="10" stroke-linecap="round" stroke-linejoin="round" stroke-dasharray="6 6" />
  <path
    d="M38.664 76.9134C16.4615 15.1475 110.113 -9.54493 120.834 55.3334C150.783 59.1376 162.887 99.0468 140.201 118.898C133.284 125.192 124.361 128.65 115.024 128.581H114.401"
    stroke="#6E6F81" stroke-miterlimit="10" stroke-linecap="round" stroke-linejoin="round"
    stroke-dasharray="6 6" />
  <path
    d="M117.583 114.333C117.583 119.451 116.476 124.293 114.401 128.581C113.848 129.826 113.226 131.002 112.534 132.108C106.586 142.138 95.5882 148.916 82.9998 148.916C70.4115 148.916 59.4139 142.138 53.4655 132.108C52.7739 131.002 52.1517 129.826 51.5983 128.581C49.5233 124.293 48.4165 119.451 48.4165 114.333C48.4165 95.2426 63.9098 79.7493 82.9998 79.7493C102.09 79.7493 117.583 95.2426 117.583 114.333Z"
    stroke="#6E6F81" stroke-miterlimit="10" stroke-linecap="round" stroke-linejoin="round"
    stroke-dasharray="6 6" />
  <path d="M72.21 114.333L79.0574 121.18L93.7899 107.554" stroke="#6E6F81" stroke-linecap="round"
    stroke-linejoin="round" stroke-dasharray="6 6" />
</svg>
  