<svg width="166" height="166" viewBox="0 0 166 166" fill="none" xmlns="http://www.w3.org/2000/svg">
  <path
    d="M58.7918 131.209H55.3335C27.6668 131.209 13.8335 124.292 13.8335 89.7091V55.1257C13.8335 27.4591 27.6668 13.6257 55.3335 13.6257H110.667C138.333 13.6257 152.167 27.4591 152.167 55.1257V89.7091C152.167 117.376 138.333 131.209 110.667 131.209H107.208C105.064 131.209 102.989 132.247 101.675 133.976L91.3002 147.809C86.7352 153.896 79.2651 153.896 74.7001 147.809L64.3251 133.976C63.2184 132.454 60.7285 131.209 58.7918 131.209Z"
    stroke="#6E6F81" stroke-miterlimit="10" stroke-linecap="round" stroke-linejoin="round"
    stroke-dasharray="6 6" />
  <path d="M55.3333 60.175L41.5 74.0084L55.3333 87.8417" stroke="#6E6F81" stroke-miterlimit="10"
    stroke-linecap="round" stroke-linejoin="round" stroke-dasharray="6 6" />
  <path d="M110.667 60.175L124.5 74.0084L110.667 87.8417" stroke="#6E6F81" stroke-miterlimit="10"
    stroke-linecap="round" stroke-linejoin="round" stroke-dasharray="6 6" />
  <path d="M89.9168 57.8926L76.0835 90.1245" stroke="#6E6F81" stroke-miterlimit="10"
    stroke-linecap="round" stroke-linejoin="round" stroke-dasharray="6 6" />
</svg>
  