<svg width="166" height="166" viewBox="0 0 166 166" fill="none" xmlns="http://www.w3.org/2000/svg">
  <path
    d="M89.9857 20.1966L130.794 38.3183C142.552 43.5058 142.552 52.0825 130.794 57.27L89.9857 75.3916C85.3515 77.4666 77.7432 77.4666 73.109 75.3916L32.3007 57.27C20.5424 52.0825 20.5424 43.5058 32.3007 38.3183L73.109 20.1966C77.7432 18.1216 85.3515 18.1216 89.9857 20.1966Z"
    stroke="#6E6F81" stroke-linecap="round" stroke-linejoin="round" stroke-dasharray="6 6" />
  <path
    d="M20.75 76.0833C20.75 81.8933 25.1075 88.6024 30.4333 90.9541L77.3975 111.842C80.9942 113.433 85.075 113.433 88.6025 111.842L135.567 90.9541C140.892 88.6024 145.25 81.8933 145.25 76.0833"
    stroke="#6E6F81" stroke-linecap="round" stroke-linejoin="round" stroke-dasharray="6 6" />
  <path
    d="M20.75 110.667C20.75 117.099 24.5542 122.909 30.4333 125.538L77.3975 146.426C80.9942 148.017 85.075 148.017 88.6025 146.426L135.567 125.538C141.446 122.909 145.25 117.099 145.25 110.667"
    stroke="#6E6F81" stroke-linecap="round" stroke-linejoin="round" stroke-dasharray="6 6" />
</svg>
  